<svg width="42" height="29" viewBox="0 0 42 29" fill="none" xmlns="http://www.w3.org/2000/svg">
<g id="bike">
<mask id="path-1-outside-1_116_136" maskUnits="userSpaceOnUse" x="0" y="0" width="42" height="29" fill="black">
<rect fill="white" width="42" height="29"/>
<path d="M32.8006 11.5332C32.1186 11.5332 31.4565 11.5983 30.8226 11.7566L28.2974 4.94006H29.1202C30.4151 4.94006 31.6398 4.46155 32.5689 3.55616L33.4403 2.71698C33.8364 2.33104 33.8457 1.70096 33.4614 1.30325C33.077 0.905531 32.4445 0.898709 32.0485 1.28465L31.1771 2.11486C30.6231 2.65491 29.8925 2.9333 29.1203 2.9333H26.8583C26.5309 2.9333 26.2242 3.1147 26.0376 3.38479C25.8509 3.65502 25.8077 4.00992 25.9223 4.31788L26.8834 6.90937C26.8773 6.90924 26.871 6.92823 26.8649 6.92823C26.8627 6.92823 26.8606 6.94656 26.8583 6.94656H14.0726L12.3459 4.02531L14.2214 3.37048C14.6833 3.21115 14.9627 2.7618 14.8823 2.27807C14.8019 1.79447 14.3853 1.4619 13.8969 1.4619H8.40681C7.63745 1.4619 7.01131 2.0647 7.01131 2.83725C7.01131 4.03333 7.9793 4.99371 9.16897 4.99371C9.40744 4.99371 9.64391 4.94729 9.87199 4.86876L10.4186 4.67706L12.1699 7.61959L10.8248 11.671C10.3836 11.5815 9.93034 11.5252 9.46686 11.5103C7.12361 11.435 4.92998 12.3314 3.30946 14.0115C1.75156 15.6267 0.932781 17.7561 1.00432 20.0076C1.14181 24.3335 4.62423 27.8302 8.93224 27.9683C9.0219 27.9711 9.11075 27.9726 9.19975 27.9726C11.4393 27.9726 13.5312 27.0741 15.0898 25.4584C16.3506 24.151 17.1269 22.4645 17.3392 20.7254H18.9447C19.2908 20.993 19.7388 21.2116 20.2288 21.2116C21.3207 21.2116 22.209 20.3238 22.209 19.2273C22.209 18.8713 22.1142 18.5398 21.9503 18.2503L27.5512 8.71146L28.9571 12.4958C26.3679 13.8816 24.601 16.6203 24.601 19.7663C24.601 24.3063 28.2793 28 32.8006 28C37.3219 28 41 24.3065 41 19.7665C41 15.2266 37.3219 11.5332 32.8006 11.5332ZM25.1105 8.95333L20.2337 17.2596L20.2288 17.2513C20.2231 17.2513 20.2176 17.2641 20.2119 17.2643L15.2652 8.95346L25.1105 8.95333ZM13.5219 9.89083L18.5014 18.2537C18.4191 18.4009 18.3564 18.5852 18.3133 18.7189H17.3374C16.9922 15.9096 15.1973 13.4855 12.7201 12.2976L13.5219 9.89083ZM10.918 18.7189C10.851 18.5852 10.774 18.5148 10.6878 18.4202L11.8689 14.8583C13.297 15.6509 14.3417 17.1136 14.6444 18.7189H10.918ZM13.1759 23.5971C12.0815 24.7316 10.6032 25.3415 9.01737 25.29C6.11019 25.1969 3.76029 22.8393 3.66756 19.9201C3.61921 18.3992 4.17168 16.9621 5.22347 15.8718C6.27565 14.781 7.68768 14.1806 9.19948 14.1806C9.2601 14.1806 9.32071 14.1819 9.38186 14.1838C9.58196 14.1902 9.779 14.2086 9.97323 14.2359L8.77876 17.8344C7.90363 18.04 7.24924 18.8284 7.24924 19.7689C7.24924 20.8654 8.13757 21.7489 9.22932 21.7489C9.96897 21.7489 10.6142 21.3944 10.9541 20.7256H14.6443C14.451 21.7958 13.9488 22.7956 13.1759 23.5971ZM32.8006 25.3249C29.7486 25.3249 27.2655 22.8315 27.2655 19.7668C27.2655 17.7693 28.3207 16.0152 29.9005 15.0353L31.7786 20.09C31.9285 20.4936 32.3097 20.7428 32.7148 20.7428C32.8308 20.7428 32.9489 20.7225 33.064 20.6791C33.581 20.4856 33.8437 19.9075 33.6507 19.3885L31.763 14.3081C32.0993 14.2437 32.4458 14.2087 32.8006 14.2087C35.8526 14.2087 38.3356 16.7021 38.3356 19.7668C38.3356 22.8315 35.8527 25.3249 32.8006 25.3249Z"/>
</mask>
<path d="M32.8006 11.5332C32.1186 11.5332 31.4565 11.5983 30.8226 11.7566L28.2974 4.94006H29.1202C30.4151 4.94006 31.6398 4.46155 32.5689 3.55616L33.4403 2.71698C33.8364 2.33104 33.8457 1.70096 33.4614 1.30325C33.077 0.905531 32.4445 0.898709 32.0485 1.28465L31.1771 2.11486C30.6231 2.65491 29.8925 2.9333 29.1203 2.9333H26.8583C26.5309 2.9333 26.2242 3.1147 26.0376 3.38479C25.8509 3.65502 25.8077 4.00992 25.9223 4.31788L26.8834 6.90937C26.8773 6.90924 26.871 6.92823 26.8649 6.92823C26.8627 6.92823 26.8606 6.94656 26.8583 6.94656H14.0726L12.3459 4.02531L14.2214 3.37048C14.6833 3.21115 14.9627 2.7618 14.8823 2.27807C14.8019 1.79447 14.3853 1.4619 13.8969 1.4619H8.40681C7.63745 1.4619 7.01131 2.0647 7.01131 2.83725C7.01131 4.03333 7.9793 4.99371 9.16897 4.99371C9.40744 4.99371 9.64391 4.94729 9.87199 4.86876L10.4186 4.67706L12.1699 7.61959L10.8248 11.671C10.3836 11.5815 9.93034 11.5252 9.46686 11.5103C7.12361 11.435 4.92998 12.3314 3.30946 14.0115C1.75156 15.6267 0.932781 17.7561 1.00432 20.0076C1.14181 24.3335 4.62423 27.8302 8.93224 27.9683C9.0219 27.9711 9.11075 27.9726 9.19975 27.9726C11.4393 27.9726 13.5312 27.0741 15.0898 25.4584C16.3506 24.151 17.1269 22.4645 17.3392 20.7254H18.9447C19.2908 20.993 19.7388 21.2116 20.2288 21.2116C21.3207 21.2116 22.209 20.3238 22.209 19.2273C22.209 18.8713 22.1142 18.5398 21.9503 18.2503L27.5512 8.71146L28.9571 12.4958C26.3679 13.8816 24.601 16.6203 24.601 19.7663C24.601 24.3063 28.2793 28 32.8006 28C37.3219 28 41 24.3065 41 19.7665C41 15.2266 37.3219 11.5332 32.8006 11.5332ZM25.1105 8.95333L20.2337 17.2596L20.2288 17.2513C20.2231 17.2513 20.2176 17.2641 20.2119 17.2643L15.2652 8.95346L25.1105 8.95333ZM13.5219 9.89083L18.5014 18.2537C18.4191 18.4009 18.3564 18.5852 18.3133 18.7189H17.3374C16.9922 15.9096 15.1973 13.4855 12.7201 12.2976L13.5219 9.89083ZM10.918 18.7189C10.851 18.5852 10.774 18.5148 10.6878 18.4202L11.8689 14.8583C13.297 15.6509 14.3417 17.1136 14.6444 18.7189H10.918ZM13.1759 23.5971C12.0815 24.7316 10.6032 25.3415 9.01737 25.29C6.11019 25.1969 3.76029 22.8393 3.66756 19.9201C3.61921 18.3992 4.17168 16.9621 5.22347 15.8718C6.27565 14.781 7.68768 14.1806 9.19948 14.1806C9.2601 14.1806 9.32071 14.1819 9.38186 14.1838C9.58196 14.1902 9.779 14.2086 9.97323 14.2359L8.77876 17.8344C7.90363 18.04 7.24924 18.8284 7.24924 19.7689C7.24924 20.8654 8.13757 21.7489 9.22932 21.7489C9.96897 21.7489 10.6142 21.3944 10.9541 20.7256H14.6443C14.451 21.7958 13.9488 22.7956 13.1759 23.5971ZM32.8006 25.3249C29.7486 25.3249 27.2655 22.8315 27.2655 19.7668C27.2655 17.7693 28.3207 16.0152 29.9005 15.0353L31.7786 20.09C31.9285 20.4936 32.3097 20.7428 32.7148 20.7428C32.8308 20.7428 32.9489 20.7225 33.064 20.6791C33.581 20.4856 33.8437 19.9075 33.6507 19.3885L31.763 14.3081C32.0993 14.2437 32.4458 14.2087 32.8006 14.2087C35.8526 14.2087 38.3356 16.7021 38.3356 19.7668C38.3356 22.8315 35.8527 25.3249 32.8006 25.3249Z" fill="#2C2C2C"/>
<path d="M32.8006 11.5332C32.1186 11.5332 31.4565 11.5983 30.8226 11.7566L28.2974 4.94006H29.1202C30.4151 4.94006 31.6398 4.46155 32.5689 3.55616L33.4403 2.71698C33.8364 2.33104 33.8457 1.70096 33.4614 1.30325C33.077 0.905531 32.4445 0.898709 32.0485 1.28465L31.1771 2.11486C30.6231 2.65491 29.8925 2.9333 29.1203 2.9333H26.8583C26.5309 2.9333 26.2242 3.1147 26.0376 3.38479C25.8509 3.65502 25.8077 4.00992 25.9223 4.31788L26.8834 6.90937C26.8773 6.90924 26.871 6.92823 26.8649 6.92823C26.8627 6.92823 26.8606 6.94656 26.8583 6.94656H14.0726L12.3459 4.02531L14.2214 3.37048C14.6833 3.21115 14.9627 2.7618 14.8823 2.27807C14.8019 1.79447 14.3853 1.4619 13.8969 1.4619H8.40681C7.63745 1.4619 7.01131 2.0647 7.01131 2.83725C7.01131 4.03333 7.9793 4.99371 9.16897 4.99371C9.40744 4.99371 9.64391 4.94729 9.87199 4.86876L10.4186 4.67706L12.1699 7.61959L10.8248 11.671C10.3836 11.5815 9.93034 11.5252 9.46686 11.5103C7.12361 11.435 4.92998 12.3314 3.30946 14.0115C1.75156 15.6267 0.932781 17.7561 1.00432 20.0076C1.14181 24.3335 4.62423 27.8302 8.93224 27.9683C9.0219 27.9711 9.11075 27.9726 9.19975 27.9726C11.4393 27.9726 13.5312 27.0741 15.0898 25.4584C16.3506 24.151 17.1269 22.4645 17.3392 20.7254H18.9447C19.2908 20.993 19.7388 21.2116 20.2288 21.2116C21.3207 21.2116 22.209 20.3238 22.209 19.2273C22.209 18.8713 22.1142 18.5398 21.9503 18.2503L27.5512 8.71146L28.9571 12.4958C26.3679 13.8816 24.601 16.6203 24.601 19.7663C24.601 24.3063 28.2793 28 32.8006 28C37.3219 28 41 24.3065 41 19.7665C41 15.2266 37.3219 11.5332 32.8006 11.5332ZM25.1105 8.95333L20.2337 17.2596L20.2288 17.2513C20.2231 17.2513 20.2176 17.2641 20.2119 17.2643L15.2652 8.95346L25.1105 8.95333ZM13.5219 9.89083L18.5014 18.2537C18.4191 18.4009 18.3564 18.5852 18.3133 18.7189H17.3374C16.9922 15.9096 15.1973 13.4855 12.7201 12.2976L13.5219 9.89083ZM10.918 18.7189C10.851 18.5852 10.774 18.5148 10.6878 18.4202L11.8689 14.8583C13.297 15.6509 14.3417 17.1136 14.6444 18.7189H10.918ZM13.1759 23.5971C12.0815 24.7316 10.6032 25.3415 9.01737 25.29C6.11019 25.1969 3.76029 22.8393 3.66756 19.9201C3.61921 18.3992 4.17168 16.9621 5.22347 15.8718C6.27565 14.781 7.68768 14.1806 9.19948 14.1806C9.2601 14.1806 9.32071 14.1819 9.38186 14.1838C9.58196 14.1902 9.779 14.2086 9.97323 14.2359L8.77876 17.8344C7.90363 18.04 7.24924 18.8284 7.24924 19.7689C7.24924 20.8654 8.13757 21.7489 9.22932 21.7489C9.96897 21.7489 10.6142 21.3944 10.9541 20.7256H14.6443C14.451 21.7958 13.9488 22.7956 13.1759 23.5971ZM32.8006 25.3249C29.7486 25.3249 27.2655 22.8315 27.2655 19.7668C27.2655 17.7693 28.3207 16.0152 29.9005 15.0353L31.7786 20.09C31.9285 20.4936 32.3097 20.7428 32.7148 20.7428C32.8308 20.7428 32.9489 20.7225 33.064 20.6791C33.581 20.4856 33.8437 19.9075 33.6507 19.3885L31.763 14.3081C32.0993 14.2437 32.4458 14.2087 32.8006 14.2087C35.8526 14.2087 38.3356 16.7021 38.3356 19.7668C38.3356 22.8315 35.8527 25.3249 32.8006 25.3249Z" stroke="#2C2C2C" stroke-width="0.3" mask="url(#path-1-outside-1_116_136)"/>
</g>
</svg>
